<mxfile host="app.diagrams.net" modified="2020-07-29T08:18:49.347Z" agent="5.0 (Windows NT 10.0; Win64; x64) AppleWebKit/537.36 (KHTML, like Gecko) Chrome/75.0.3770.80 Safari/537.36" etag="Ous0XcfAg_2ZPMtzjpUG" version="13.5.4" type="github">
  <diagram name="Page-1" id="b5b7bab2-c9e2-2cf4-8b2a-24fd1a2a6d21">
    <mxGraphModel dx="1157" dy="600" grid="1" gridSize="10" guides="1" tooltips="1" connect="1" arrows="1" fold="1" page="1" pageScale="1" pageWidth="827" pageHeight="1169" math="0" shadow="0">
      <root>
        <mxCell id="0" />
        <mxCell id="1" parent="0" />
        <mxCell id="6e0c8c40b5770093-72" value="" style="shape=folder;fontStyle=1;spacingTop=10;tabWidth=194;tabHeight=22;tabPosition=left;html=1;shadow=0;comic=0;labelBackgroundColor=none;strokeWidth=1;fillColor=none;fontFamily=Verdana;fontSize=10;align=center;" parent="1" vertex="1">
          <mxGeometry x="321.5" y="114.5" width="1001" height="940" as="geometry" />
        </mxCell>
        <mxCell id="6e0c8c40b5770093-6" value="" style="group;" parent="1" vertex="1" connectable="0">
          <mxGeometry x="727" y="240" width="200" height="90" as="geometry" />
        </mxCell>
        <mxCell id="6e0c8c40b5770093-4" value="&lt;font style=&quot;font-size: 12px&quot;&gt;Organization of Khoros&lt;/font&gt;" style="shape=folder;fontStyle=1;spacingTop=10;tabWidth=50;tabHeight=17;tabPosition=left;html=1;shadow=0;comic=0;labelBackgroundColor=none;strokeWidth=1;fontFamily=Verdana;fontSize=10;align=center;" parent="6e0c8c40b5770093-6" vertex="1">
          <mxGeometry width="200" height="90" as="geometry" />
        </mxCell>
        <mxCell id="6e0c8c40b5770093-5" value="" style="triangle;whiteSpace=wrap;html=1;shadow=0;comic=0;labelBackgroundColor=none;strokeWidth=1;fontFamily=Verdana;fontSize=10;align=center;rotation=-90;" parent="6e0c8c40b5770093-6" vertex="1">
          <mxGeometry x="174.5" y="65.5" width="15" height="20" as="geometry" />
        </mxCell>
        <mxCell id="6e0c8c40b5770093-18" value="" style="group;" parent="1" vertex="1" connectable="0">
          <mxGeometry x="600" y="410" width="440" height="160" as="geometry" />
        </mxCell>
        <mxCell id="6e0c8c40b5770093-11" value="" style="shape=folder;fontStyle=1;spacingTop=10;tabWidth=123;tabHeight=24;tabPosition=left;html=1;shadow=0;comic=0;labelBackgroundColor=none;strokeWidth=1;fontFamily=Verdana;fontSize=10;align=center;" parent="6e0c8c40b5770093-18" vertex="1">
          <mxGeometry width="440" height="160" as="geometry" />
        </mxCell>
        <mxCell id="6e0c8c40b5770093-15" value="&lt;font style=&quot;font-size: 12px&quot;&gt;Toolbox&lt;/font&gt;" style="shape=folder;fontStyle=1;spacingTop=10;tabWidth=50;tabHeight=17;tabPosition=left;html=1;shadow=0;comic=0;labelBackgroundColor=none;strokeWidth=1;fontFamily=Verdana;fontSize=10;align=center;fillColor=#fff2cc;strokeColor=#d6b656;" parent="6e0c8c40b5770093-18" vertex="1">
          <mxGeometry x="28.29" y="49.23076923076923" width="158" height="86.15384615384616" as="geometry" />
        </mxCell>
        <mxCell id="FjKPR914MNr0r38c8ErT-16" style="edgeStyle=orthogonalEdgeStyle;curved=0;rounded=0;sketch=0;orthogonalLoop=1;jettySize=auto;html=1;exitX=0;exitY=0;exitDx=0;exitDy=51.5;exitPerimeter=0;entryX=0;entryY=0;entryDx=158;entryDy=51.57692307692308;entryPerimeter=0;" parent="6e0c8c40b5770093-18" source="6e0c8c40b5770093-17" target="6e0c8c40b5770093-15" edge="1">
          <mxGeometry relative="1" as="geometry" />
        </mxCell>
        <mxCell id="6e0c8c40b5770093-17" value="&lt;font style=&quot;font-size: 12px&quot;&gt;Data Models&lt;/font&gt;" style="shape=folder;fontStyle=1;spacingTop=10;tabWidth=50;tabHeight=17;tabPosition=left;html=1;shadow=0;comic=0;labelBackgroundColor=none;strokeWidth=1;fontFamily=Verdana;fontSize=10;align=center;" parent="6e0c8c40b5770093-18" vertex="1">
          <mxGeometry x="270" y="49.23076923076923" width="158" height="86" as="geometry" />
        </mxCell>
        <mxCell id="FjKPR914MNr0r38c8ErT-17" value="" style="triangle;whiteSpace=wrap;html=1;shadow=0;comic=0;labelBackgroundColor=none;strokeWidth=1;fontFamily=Verdana;fontSize=10;align=center;rotation=-90;" parent="6e0c8c40b5770093-18" vertex="1">
          <mxGeometry x="98" y="1" width="15" height="20" as="geometry" />
        </mxCell>
        <mxCell id="6e0c8c40b5770093-19" value="" style="group;" parent="1" vertex="1" connectable="0">
          <mxGeometry x="508" y="777" width="640" height="160" as="geometry" />
        </mxCell>
        <mxCell id="6e0c8c40b5770093-20" value="" style="shape=folder;fontStyle=1;spacingTop=10;tabWidth=123;tabHeight=24;tabPosition=left;html=1;shadow=0;comic=0;labelBackgroundColor=none;strokeWidth=1;fontFamily=Verdana;fontSize=10;align=center;" parent="6e0c8c40b5770093-19" vertex="1">
          <mxGeometry x="10" width="630" height="160" as="geometry" />
        </mxCell>
        <mxCell id="6e0c8c40b5770093-22" value="&lt;font style=&quot;font-size: 12px&quot;&gt;Information &lt;br&gt;Processing&lt;/font&gt;" style="shape=folder;fontStyle=1;spacingTop=10;tabWidth=50;tabHeight=17;tabPosition=left;html=1;shadow=0;comic=0;labelBackgroundColor=none;strokeWidth=1;fontFamily=Verdana;fontSize=10;align=center;" parent="6e0c8c40b5770093-19" vertex="1">
          <mxGeometry x="41.14" y="49.23" width="158.86" height="86.15" as="geometry" />
        </mxCell>
        <mxCell id="FjKPR914MNr0r38c8ErT-12" value="" style="triangle;whiteSpace=wrap;html=1;shadow=0;comic=0;labelBackgroundColor=none;strokeWidth=1;fontFamily=Verdana;fontSize=10;align=center;rotation=-90;" parent="6e0c8c40b5770093-19" vertex="1">
          <mxGeometry x="100" width="15" height="20" as="geometry" />
        </mxCell>
        <mxCell id="FjKPR914MNr0r38c8ErT-20" style="edgeStyle=orthogonalEdgeStyle;curved=0;rounded=0;sketch=0;orthogonalLoop=1;jettySize=auto;html=1;exitX=0;exitY=0;exitDx=0;exitDy=51.575;exitPerimeter=0;entryX=0;entryY=0;entryDx=158.86;entryDy=51.575;entryPerimeter=0;" parent="6e0c8c40b5770093-19" source="FjKPR914MNr0r38c8ErT-14" target="6e0c8c40b5770093-22" edge="1">
          <mxGeometry relative="1" as="geometry" />
        </mxCell>
        <mxCell id="FjKPR914MNr0r38c8ErT-14" value="&lt;font style=&quot;font-size: 12px&quot;&gt;Data &lt;br&gt;Exploration&lt;/font&gt;" style="shape=folder;fontStyle=1;spacingTop=10;tabWidth=50;tabHeight=17;tabPosition=left;html=1;shadow=0;comic=0;labelBackgroundColor=none;strokeWidth=1;fontFamily=Verdana;fontSize=10;align=center;" parent="6e0c8c40b5770093-19" vertex="1">
          <mxGeometry x="250" y="49.23000000000002" width="158.86" height="86.15" as="geometry" />
        </mxCell>
        <mxCell id="FjKPR914MNr0r38c8ErT-19" style="edgeStyle=orthogonalEdgeStyle;curved=0;rounded=0;sketch=0;orthogonalLoop=1;jettySize=auto;html=1;exitX=0;exitY=0;exitDx=0;exitDy=51.575;exitPerimeter=0;entryX=0;entryY=0;entryDx=158.86;entryDy=51.575;entryPerimeter=0;" parent="6e0c8c40b5770093-19" source="FjKPR914MNr0r38c8ErT-15" target="FjKPR914MNr0r38c8ErT-14" edge="1">
          <mxGeometry relative="1" as="geometry" />
        </mxCell>
        <mxCell id="FjKPR914MNr0r38c8ErT-15" value="&lt;font style=&quot;font-size: 12px&quot;&gt;Data&lt;br&gt;Visualization&lt;/font&gt;" style="shape=folder;fontStyle=1;spacingTop=10;tabWidth=50;tabHeight=17;tabPosition=left;html=1;shadow=0;comic=0;labelBackgroundColor=none;strokeWidth=1;fontFamily=Verdana;fontSize=10;align=center;" parent="6e0c8c40b5770093-19" vertex="1">
          <mxGeometry x="450" y="49.23000000000002" width="158.86" height="86.15" as="geometry" />
        </mxCell>
        <mxCell id="6e0c8c40b5770093-73" value="Modelo Estrutural Khoros-Cantata" style="text;html=1;align=left;verticalAlign=top;spacingTop=-4;fontSize=10;fontFamily=Verdana;" parent="1" vertex="1">
          <mxGeometry x="327.5" y="114.5" width="182.5" height="20" as="geometry" />
        </mxCell>
        <mxCell id="6e0c8c40b5770093-8" value="&lt;font style=&quot;font-size: 12px&quot;&gt;Visual Programming &lt;br&gt;Environment Canta&lt;/font&gt;" style="shape=folder;fontStyle=1;spacingTop=10;tabWidth=50;tabHeight=17;tabPosition=left;html=1;shadow=0;comic=0;labelBackgroundColor=none;strokeWidth=1;fontFamily=Verdana;fontSize=10;align=center;" parent="1" vertex="1">
          <mxGeometry x="698" y="647" width="250" height="80" as="geometry" />
        </mxCell>
        <mxCell id="6e0c8c40b5770093-9" value="" style="triangle;whiteSpace=wrap;html=1;shadow=0;comic=0;labelBackgroundColor=none;strokeWidth=1;fontFamily=Verdana;fontSize=10;align=center;rotation=-90;" parent="1" vertex="1">
          <mxGeometry x="918" y="697" width="15" height="20" as="geometry" />
        </mxCell>
        <mxCell id="FjKPR914MNr0r38c8ErT-25" style="edgeStyle=orthogonalEdgeStyle;curved=0;rounded=0;sketch=0;orthogonalLoop=1;jettySize=auto;html=1;exitX=0.5;exitY=1;exitDx=0;exitDy=0;exitPerimeter=0;entryX=0.516;entryY=0.125;entryDx=0;entryDy=0;entryPerimeter=0;endSize=6;startSize=6;fontSize=11;" parent="1" source="6e0c8c40b5770093-4" target="6e0c8c40b5770093-11" edge="1">
          <mxGeometry relative="1" as="geometry" />
        </mxCell>
        <mxCell id="FjKPR914MNr0r38c8ErT-28" style="edgeStyle=orthogonalEdgeStyle;curved=0;rounded=0;sketch=0;orthogonalLoop=1;jettySize=auto;html=1;exitX=0.5;exitY=1;exitDx=0;exitDy=0;exitPerimeter=0;endSize=6;startSize=6;fontSize=11;verticalAlign=middle;horizontal=1;arcSize=20;" parent="1" edge="1">
          <mxGeometry relative="1" as="geometry">
            <mxPoint x="827" y="729" as="sourcePoint" />
            <mxPoint x="827" y="800" as="targetPoint" />
          </mxGeometry>
        </mxCell>
      </root>
    </mxGraphModel>
  </diagram>
</mxfile>
